<svg xmlns="http://www.w3.org/2000/svg" xmlns:xlink="http://www.w3.org/1999/xlink" id="processonSvg1000" viewBox="20.0 132.0 801.0 416.5" width="801.0" height="416.5"><defs id="ProcessOnDefs1001"/><g id="ProcessOnG1002"><path id="ProcessOnPath1003" d="M20.0 132.0H821.0V548.5H20.0V132.0Z" fill="none"/><g id="ProcessOnG1004"><g id="ProcessOnG1005" transform="matrix(1.0,0.0,0.0,1.0,99.0,152.0)" opacity="1.0"><path id="ProcessOnPath1006" d="M0.0 20.0C0.0 -6.666666666666667 40.0 -6.666666666666667 40.0 20.0C40.0 46.666666666666664 0.0 46.666666666666664 0.0 20.0Z" stroke="#007fff" stroke-width="2.0" stroke-dasharray="none" opacity="1.0" fill="#ffffff"/><g id="ProcessOnG1007" transform="matrix(1.0,0.0,0.0,1.0,-20.0,43.125)"><text id="ProcessOnText1008" fill="#000000" font-weight="normal" font-style="normal" text-decoration="blink" font-family="微软雅黑" text-anchor="middle" font-size="19" x="40.0" y="19.475">i1</text></g></g><g id="ProcessOnG1009"><path id="ProcessOnPath1010" d="M139.0 172.0L400.0 172.0" stroke="#323232" stroke-width="2.0" stroke-dasharray="none" fill="none"/><g id="ProcessOnG1011" transform="matrix(1.0,0.0,0.0,1.0,269.5,159.5)"><path id="ProcessOnPath1012" d="M0 0H75.0V25.0H0Z" fill="#fff" transform="matrix(1.0,0.0,0.0,1.0,-37.5,0.0)"/><text id="ProcessOnText1013" fill="#ff6666" font-weight="normal" font-style="normal" text-decoration="blink" font-family="微软雅黑" text-anchor="middle" font-size="20" x="0.0" y="20.5">w1 0.10</text></g></g><g id="ProcessOnG1014" transform="matrix(1.0,0.0,0.0,1.0,400.0,152.0)" opacity="1.0"><path id="ProcessOnPath1015" d="M0.0 20.0C0.0 -6.666666666666667 40.0 -6.666666666666667 40.0 20.0C40.0 46.666666666666664 0.0 46.666666666666664 0.0 20.0Z" stroke="#ff8000" stroke-width="2.0" stroke-dasharray="none" opacity="1.0" fill="#ffffff"/><g id="ProcessOnG1016" transform="matrix(1.0,0.0,0.0,1.0,-20.0,42.5)"><text id="ProcessOnText1017" fill="#000000" font-weight="normal" font-style="normal" text-decoration="blink" font-family="微软雅黑" text-anchor="middle" font-size="20" x="40.0" y="20.5">h1</text></g></g><g id="ProcessOnG1018" transform="matrix(1.0,0.0,0.0,1.0,99.0,336.0)" opacity="1.0"><path id="ProcessOnPath1019" d="M0.0 20.0C0.0 -6.666666666666667 40.0 -6.666666666666667 40.0 20.0C40.0 46.666666666666664 0.0 46.666666666666664 0.0 20.0Z" stroke="#007fff" stroke-width="2.0" stroke-dasharray="none" opacity="1.0" fill="#ffffff"/><g id="ProcessOnG1020" transform="matrix(1.0,0.0,0.0,1.0,-20.0,42.5)"><text id="ProcessOnText1021" fill="#000000" font-weight="normal" font-style="normal" text-decoration="blink" font-family="微软雅黑" text-anchor="middle" font-size="20" x="40.0" y="20.5">i2</text></g></g><g id="ProcessOnG1022"><path id="ProcessOnPath1023" d="M139.0 356.0L400.0 172.0" stroke="#323232" stroke-width="2.0" stroke-dasharray="none" fill="none"/><g id="ProcessOnG1024" transform="matrix(1.0,0.0,0.0,1.0,269.5,251.5)"><path id="ProcessOnPath1025" d="M0 0H75.0V25.0H0Z" fill="#fff" transform="matrix(1.0,0.0,0.0,1.0,-37.5,0.0)"/><text id="ProcessOnText1026" fill="#ff6666" font-weight="normal" font-style="normal" text-decoration="blink" font-family="微软雅黑" text-anchor="middle" font-size="20" x="0.0" y="20.5">w2 0.20</text></g></g><g id="ProcessOnG1027" transform="matrix(1.0,0.0,0.0,1.0,218.0,461.0)" opacity="1.0"><path id="ProcessOnPath1028" d="M0.0 20.0C0.0 -6.666666666666667 40.0 -6.666666666666667 40.0 20.0C40.0 46.666666666666664 0.0 46.666666666666664 0.0 20.0Z" stroke="#660000" stroke-width="2.0" stroke-dasharray="none" opacity="1.0" fill="#ffffff"/><g id="ProcessOnG1029" transform="matrix(1.0,0.0,0.0,1.0,-20.0,42.5)"><text id="ProcessOnText1030" fill="#663300" font-weight="normal" font-style="normal" text-decoration="blink" font-family="微软雅黑" text-anchor="middle" font-size="20" x="40.0" y="20.5">b1 0.35</text></g></g><g id="ProcessOnG1031"><path id="ProcessOnPath1032" d="M258.0 481.0L400.0 172.0" stroke="#323232" stroke-width="2.0" stroke-dasharray="none" fill="none"/></g><g id="ProcessOnG1033"><path id="ProcessOnPath1034" d="M440.0 172.0L701.0 172.0" stroke="#323232" stroke-width="2.0" stroke-dasharray="none" fill="none"/><g id="ProcessOnG1035" transform="matrix(1.0,0.0,0.0,1.0,570.5,159.5)"><path id="ProcessOnPath1036" d="M0 0H75.0V25.0H0Z" fill="#fff" transform="matrix(1.0,0.0,0.0,1.0,-37.5,0.0)"/><text id="ProcessOnText1037" fill="#ff6666" font-weight="normal" font-style="normal" text-decoration="blink" font-family="微软雅黑" text-anchor="middle" font-size="20" x="0.0" y="20.5">w5 0.30</text></g></g><g id="ProcessOnG1038" transform="matrix(1.0,0.0,0.0,1.0,400.0,238.0)" opacity="1.0"><path id="ProcessOnPath1039" d="M0.0 20.0C0.0 -6.666666666666667 40.0 -6.666666666666667 40.0 20.0C40.0 46.666666666666664 0.0 46.666666666666664 0.0 20.0Z" stroke="#ff8000" stroke-width="2.0" stroke-dasharray="none" opacity="1.0" fill="#ffffff"/><g id="ProcessOnG1040" transform="matrix(1.0,0.0,0.0,1.0,-20.0,42.5)"><text id="ProcessOnText1041" fill="#000000" font-weight="normal" font-style="normal" text-decoration="blink" font-family="微软雅黑" text-anchor="middle" font-size="20" x="40.0" y="20.5">h2</text></g></g><g id="ProcessOnG1042"><path id="ProcessOnPath1043" d="M139.0 356.0L400.0 258.0" stroke="#323232" stroke-width="2.0" stroke-dasharray="none" fill="none"/><g id="ProcessOnG1044" transform="matrix(1.0,0.0,0.0,1.0,269.5,294.5)"><path id="ProcessOnPath1045" d="M0 0H75.0V25.0H0Z" fill="#fff" transform="matrix(1.0,0.0,0.0,1.0,-37.5,0.0)"/><text id="ProcessOnText1046" fill="#ff6666" font-weight="normal" font-style="normal" text-decoration="blink" font-family="微软雅黑" text-anchor="middle" font-size="20" x="0.0" y="20.5">w4 0.25</text></g></g><g id="ProcessOnG1047"><path id="ProcessOnPath1048" d="M139.0 172.0L400.0 258.0" stroke="#323232" stroke-width="2.0" stroke-dasharray="none" fill="none"/><g id="ProcessOnG1049" transform="matrix(1.0,0.0,0.0,1.0,269.5,202.5)"><path id="ProcessOnPath1050" d="M0 0H75.0V25.0H0Z" fill="#fff" transform="matrix(1.0,0.0,0.0,1.0,-37.5,0.0)"/><text id="ProcessOnText1051" fill="#ff6666" font-weight="normal" font-style="normal" text-decoration="blink" font-family="微软雅黑" text-anchor="start" font-size="20" x="-37.5" y="20.5">w3 0.15</text></g></g><g id="ProcessOnG1052"><path id="ProcessOnPath1053" d="M258.0 481.0L400.0 258.0" stroke="#323232" stroke-width="2.0" stroke-dasharray="none" fill="none"/></g><g id="ProcessOnG1054" transform="matrix(1.0,0.0,0.0,1.0,701.0,152.0)" opacity="1.0"><path id="ProcessOnPath1055" d="M0.0 20.0C0.0 -6.666666666666667 40.0 -6.666666666666667 40.0 20.0C40.0 46.666666666666664 0.0 46.666666666666664 0.0 20.0Z" stroke="#ff8000" stroke-width="2.0" stroke-dasharray="none" opacity="1.0" fill="#ffffff"/><g id="ProcessOnG1056" transform="matrix(1.0,0.0,0.0,1.0,-20.0,42.5)"><text id="ProcessOnText1057" fill="#000000" font-weight="normal" font-style="normal" text-decoration="blink" font-family="微软雅黑" text-anchor="middle" font-size="20" x="40.0" y="20.5">o1</text></g></g><g id="ProcessOnG1058" transform="matrix(1.0,0.0,0.0,1.0,701.0,336.0)" opacity="1.0"><path id="ProcessOnPath1059" d="M0.0 20.0C0.0 -6.666666666666667 40.0 -6.666666666666667 40.0 20.0C40.0 46.666666666666664 0.0 46.666666666666664 0.0 20.0Z" stroke="#ff8000" stroke-width="2.0" stroke-dasharray="none" opacity="1.0" fill="#ffffff"/><g id="ProcessOnG1060" transform="matrix(1.0,0.0,0.0,1.0,-20.0,42.5)"><text id="ProcessOnText1061" fill="#000000" font-weight="normal" font-style="normal" text-decoration="blink" font-family="微软雅黑" text-anchor="middle" font-size="20" x="40.0" y="20.5">o2</text></g></g><g id="ProcessOnG1062"><path id="ProcessOnPath1063" d="M440.0 172.0L701.0 356.0" stroke="#323232" stroke-width="2.0" stroke-dasharray="none" fill="none"/><g id="ProcessOnG1064" transform="matrix(1.0,0.0,0.0,1.0,570.5,251.5)"><path id="ProcessOnPath1065" d="M0 0H75.0V25.0H0Z" fill="#fff" transform="matrix(1.0,0.0,0.0,1.0,-37.5,0.0)"/><text id="ProcessOnText1066" fill="#ff6666" font-weight="normal" font-style="normal" text-decoration="blink" font-family="微软雅黑" text-anchor="middle" font-size="20" x="0.0" y="20.5">w7 0.40</text></g></g><g id="ProcessOnG1067"><path id="ProcessOnPath1068" d="M560.0 481.0L701.0 356.0" stroke="#323232" stroke-width="2.0" stroke-dasharray="none" fill="none"/></g><g id="ProcessOnG1069"><path id="ProcessOnPath1070" d="M560.0 481.0L701.0 172.0" stroke="#323232" stroke-width="2.0" stroke-dasharray="none" fill="none"/></g><g id="ProcessOnG1071"><path id="ProcessOnPath1072" d="M440.0 258.0L701.0 172.0" stroke="#323232" stroke-width="2.0" stroke-dasharray="none" fill="none"/><g id="ProcessOnG1073" transform="matrix(1.0,0.0,0.0,1.0,570.5,202.5)"><path id="ProcessOnPath1074" d="M0 0H75.0V25.0H0Z" fill="#fff" transform="matrix(1.0,0.0,0.0,1.0,-37.5,0.0)"/><text id="ProcessOnText1075" fill="#ff6666" font-weight="normal" font-style="normal" text-decoration="blink" font-family="微软雅黑" text-anchor="middle" font-size="20" x="0.0" y="20.5">w6 0.35</text></g></g><g id="ProcessOnG1076"><path id="ProcessOnPath1077" d="M440.0 258.0L701.0 356.0" stroke="#323232" stroke-width="2.0" stroke-dasharray="none" fill="none"/><g id="ProcessOnG1078" transform="matrix(1.0,0.0,0.0,1.0,570.5,294.5)"><path id="ProcessOnPath1079" d="M0 0H75.0V25.0H0Z" fill="#fff" transform="matrix(1.0,0.0,0.0,1.0,-37.5,0.0)"/><text id="ProcessOnText1080" fill="#ff6666" font-weight="normal" font-style="normal" text-decoration="blink" font-family="微软雅黑" text-anchor="middle" font-size="20" x="0.0" y="20.5">w8 0.45</text></g></g><g id="ProcessOnG1081" transform="matrix(1.0,0.0,0.0,1.0,520.0,461.0)" opacity="1.0"><path id="ProcessOnPath1082" d="M0.0 20.0C0.0 -6.666666666666667 40.0 -6.666666666666667 40.0 20.0C40.0 46.666666666666664 0.0 46.666666666666664 0.0 20.0Z" stroke="#660000" stroke-width="2.0" stroke-dasharray="none" opacity="1.0" fill="#ffffff"/><g id="ProcessOnG1083" transform="matrix(1.0,0.0,0.0,1.0,-20.0,42.5)"><text id="ProcessOnText1084" fill="#660000" font-weight="normal" font-style="normal" text-decoration="blink" font-family="微软雅黑" text-anchor="middle" font-size="20" x="40.0" y="20.5">b2 0.60</text></g></g><g id="ProcessOnG1085" transform="matrix(1.0,0.0,0.0,1.0,40.0,152.0)" opacity="1.0"><path id="ProcessOnPath1086" d="M0.0 0.0L160.0 0.0L160.0 40.0L0.0 40.0Z" stroke="#323232" stroke-width="0.0" stroke-dasharray="none" opacity="1.0" fill="none"/><g id="ProcessOnG1087" transform="matrix(1.0,0.0,0.0,1.0,0.0,10.625)"><text id="ProcessOnText1088" fill="#000000" font-weight="normal" font-style="normal" text-decoration="blink" font-family="微软雅黑" text-anchor="middle" font-size="15" x="80.0" y="15.375">0.15</text></g></g><g id="ProcessOnG1089" transform="matrix(1.0,0.0,0.0,1.0,40.0,336.0)" opacity="1.0"><path id="ProcessOnPath1090" d="M0.0 0.0L160.0 0.0L160.0 40.0L0.0 40.0Z" stroke="#323232" stroke-width="0.0" stroke-dasharray="none" opacity="1.0" fill="none"/><g id="ProcessOnG1091" transform="matrix(1.0,0.0,0.0,1.0,0.0,10.625)"><text id="ProcessOnText1092" fill="#000000" font-weight="normal" font-style="normal" text-decoration="blink" font-family="微软雅黑" text-anchor="middle" font-size="15" x="80.0" y="15.375">0.10</text></g></g><g id="ProcessOnG1093" transform="matrix(1.0,0.0,0.0,1.0,641.0,152.0)" opacity="1.0"><path id="ProcessOnPath1094" d="M0.0 0.0L160.0 0.0L160.0 40.0L0.0 40.0Z" stroke="#323232" stroke-width="0.0" stroke-dasharray="none" opacity="1.0" fill="none"/><g id="ProcessOnG1095" transform="matrix(1.0,0.0,0.0,1.0,0.0,10.625)"><text id="ProcessOnText1096" fill="#000000" font-weight="normal" font-style="normal" text-decoration="blink" font-family="微软雅黑" text-anchor="middle" font-size="15" x="80.0" y="15.375">0.01</text></g></g><g id="ProcessOnG1097" transform="matrix(1.0,0.0,0.0,1.0,641.0,336.0)" opacity="1.0"><path id="ProcessOnPath1098" d="M0.0 0.0L160.0 0.0L160.0 40.0L0.0 40.0Z" stroke="#323232" stroke-width="0.0" stroke-dasharray="none" opacity="1.0" fill="none"/><g id="ProcessOnG1099" transform="matrix(1.0,0.0,0.0,1.0,0.0,10.625)"><text id="ProcessOnText1100" fill="#000000" font-weight="normal" font-style="normal" text-decoration="blink" font-family="微软雅黑" text-anchor="middle" font-size="15" x="80.0" y="15.375">0.99</text></g></g><g id="ProcessOnG1101" transform="matrix(1.0,0.0,0.0,1.0,226.5,471.0)" opacity="1.0"><path id="ProcessOnPath1102" d="M0.0 0.0L23.0 0.0L23.0 20.0L0.0 20.0Z" stroke="#323232" stroke-width="0.0" stroke-dasharray="none" opacity="1.0" fill="none"/><g id="ProcessOnG1103" transform="matrix(1.0,0.0,0.0,1.0,0.0,0.625)"><text id="ProcessOnText1104" fill="#663300" font-weight="normal" font-style="normal" text-decoration="blink" font-family="微软雅黑" text-anchor="middle" font-size="15" x="11.5" y="15.375">1</text></g></g><g id="ProcessOnG1105" transform="matrix(1.0,0.0,0.0,1.0,524.0,466.0)" opacity="1.0"><path id="ProcessOnPath1106" d="M0.0 0.0L32.0 0.0L32.0 30.0L0.0 30.0Z" stroke="#323232" stroke-width="0.0" stroke-dasharray="none" opacity="1.0" fill="none"/><g id="ProcessOnG1107" transform="matrix(1.0,0.0,0.0,1.0,0.0,5.625)"><text id="ProcessOnText1108" fill="#660000" font-weight="normal" font-style="normal" text-decoration="blink" font-family="微软雅黑" text-anchor="middle" font-size="15" x="16.0" y="15.375">1</text></g></g></g></g></svg>